# xmcd
#
# Track frame offsets:
#	150
#	16983
#	37284
#	59621
#	81758
#	100263
#	114620
#	139206
#	161284
#
# Disc length: 2317 seconds
#
# Revision: 1
# Processed by: cddbd v1.5.2PL0 Copyright (c) Steve Scherf et al.
# Submitted via: audiograbber 1.82.02
#
DISCID=77090b09
DTITLE=Eddie Corduroy - My Riverside
DYEAR=2009
DGENRE=Blues
TTITLE0=My Riverside
TTITLE1=That's My Wife
TTITLE2=My Road
TTITLE3=Lazy
TTITLE4=Poor Old Guitar Player
TTITLE5=Hippy Man
TTITLE6=Jazzy's
TTITLE7=4th of July
TTITLE8=Troy
EXTD=
EXTT0=
EXTT1=
EXTT2=
EXTT3=
EXTT4=
EXTT5=
EXTT6=
EXTT7=
EXTT8=
PLAYORDER=
